<mxfile host="app.diagrams.net" agent="Mozilla/5.0 (Windows NT 10.0; Win64; x64) AppleWebKit/537.36 (KHTML, like Gecko) Chrome/130.0.0.0 Safari/537.36" version="24.8.3">
  <diagram name="Page-1" id="hKHPqvFZ_AdFWIHVvHl1">
    <mxGraphModel dx="1114" dy="550" grid="1" gridSize="10" guides="1" tooltips="1" connect="1" arrows="1" fold="1" page="1" pageScale="1" pageWidth="827" pageHeight="1169" math="0" shadow="0">
      <root>
        <mxCell id="0" />
        <mxCell id="1" parent="0" />
        <mxCell id="TptH-x_JvI9MC0Yq97Ju-18" value="&lt;span id=&quot;docs-internal-guid-60e5b421-7fff-0e6d-f3a3-e9d849721a13&quot;&gt;&lt;span style=&quot;font-size: 13pt; font-family: Calibri, sans-serif; color: rgb(79, 129, 189); background-color: transparent; font-variant-numeric: normal; font-variant-east-asian: normal; font-variant-alternates: normal; font-variant-position: normal; vertical-align: baseline; white-space-collapse: preserve;&quot;&gt;Data pipeline using Dataflow&lt;/span&gt;&lt;/span&gt;" style="rounded=0;whiteSpace=wrap;html=1;fontStyle=1" parent="1" vertex="1">
          <mxGeometry x="51.02" y="30" width="258.98" height="40" as="geometry" />
        </mxCell>
        <mxCell id="SggKGLeIlBfDRfWy77FJ-22" value="" style="group" vertex="1" connectable="0" parent="1">
          <mxGeometry x="51.02" y="80" width="895.08" height="435" as="geometry" />
        </mxCell>
        <mxCell id="TptH-x_JvI9MC0Yq97Ju-15" value="" style="strokeColor=#dddddd;shadow=1;strokeWidth=1;rounded=1;absoluteArcSize=1;arcSize=2;fontSize=17;fontColor=default;labelBackgroundColor=none;" parent="SggKGLeIlBfDRfWy77FJ-22" vertex="1">
          <mxGeometry x="735.08" y="139.29775280898875" width="160.00000000000003" height="80.15730337078651" as="geometry" />
        </mxCell>
        <mxCell id="TptH-x_JvI9MC0Yq97Ju-16" value="BigQuery" style="editableCssRules=.*;html=1;fontColor=#999999;shape=image;verticalLabelPosition=middle;verticalAlign=middle;labelPosition=right;align=left;spacingLeft=20;part=1;points=[];imageAspect=0;image=data:image/svg+xml,PHN2ZyB4bWxucz0iaHR0cDovL3d3dy53My5vcmcvMjAwMC9zdmciIHhtbG5zOnY9Imh0dHBzOi8vdmVjdGEuaW8vbmFubyIgd2lkdGg9IjIwLjAwMTA0NTIyNzA1MDc4IiBoZWlnaHQ9IjIwLjAwMTA0NTIyNzA1MDc4IiBmaWxsLXJ1bGU9ImV2ZW5vZGQiIHZpZXdCb3g9IjAgMCAyMC4wMDEwNDUyMjcwNTA3OCAyMC4wMDEwNDUyMjcwNTA3OCI+JiN4YTsJPHN0eWxlIHR5cGU9InRleHQvY3NzIj4mI3hhOwkuc3Qwe2ZpbGw6I2FlY2JmYTt9JiN4YTsJLnN0MXtmaWxsOiM2NjlkZjY7fSYjeGE7CS5zdDJ7ZmlsbDojNDI4NWY0O30mI3hhOwk8L3N0eWxlPiYjeGE7CTxwYXRoIGNsYXNzPSJzdDAiIGQ9Ik00LjczIDguODN2Mi42M2E0LjkxIDQuOTEgMCAwIDAgMS43MSAxLjc0VjguODN6Ii8+JiN4YTsJPHBhdGggY2xhc3M9InN0MSIgZD0iTTcuODkgNi40MXY3LjUzQTcuNjIgNy42MiAwIDAgMCA5IDE0YTggOCAwIDAgMCAxIDBWNi40MXoiLz4mI3hhOwk8cGF0aCBjbGFzcz0ic3QwIiBkPSJNMTEuNjQgOS44NnYzLjI5YTUgNSAwIDAgMCAxLjctMS44MlY5Ljg2eiIvPiYjeGE7CTxwYXRoIGNsYXNzPSJzdDIiIGQ9Ik0xNS43NCAxNC4zMmwtMS40MiAxLjQyYS40Mi40MiAwIDAgMCAwIC42bDMuNTQgMy41NGEuNDIuNDIgMCAwIDAgLjU5IDBsMS40My0xLjQzYS40Mi40MiAwIDAgMCAwLS41OWwtMy41NC0zLjU0YS40Mi40MiAwIDAgMC0uNiAwIi8+JiN4YTsJPHBhdGggY2xhc3M9InN0MSIgZD0iTTkgMGE5IDkgMCAxIDAgMCAxOEE5IDkgMCAxIDAgOSAwbTAgMTUuNjlhNi42OCA2LjY4IDAgMCAxIC4wMDctMTMuMzYgNi42OCA2LjY4IDAgMCAxIDQuNzI3IDExLjQwM0E2LjY4IDYuNjggMCAwIDEgOSAxNS42OSIvPiYjeGE7PC9zdmc+;" parent="TptH-x_JvI9MC0Yq97Ju-15" vertex="1">
          <mxGeometry width="30" height="30" relative="1" as="geometry">
            <mxPoint x="15" y="15" as="offset" />
          </mxGeometry>
        </mxCell>
        <mxCell id="TptH-x_JvI9MC0Yq97Ju-46" style="edgeStyle=orthogonalEdgeStyle;rounded=0;orthogonalLoop=1;jettySize=auto;html=1;exitX=1;exitY=0.5;exitDx=0;exitDy=0;" parent="SggKGLeIlBfDRfWy77FJ-22" source="TptH-x_JvI9MC0Yq97Ju-47" target="TptH-x_JvI9MC0Yq97Ju-48" edge="1">
          <mxGeometry relative="1" as="geometry" />
        </mxCell>
        <mxCell id="TptH-x_JvI9MC0Yq97Ju-47" value="" style="shape=image;verticalLabelPosition=bottom;labelBackgroundColor=default;verticalAlign=top;aspect=fixed;imageAspect=0;image=data:image/jpeg,/9j/4AAQSkZJRgABAQAAAQABAAD/2wCEAAkGBxANDw0OEA0PDQ8PEBAOEA8NDxAPDQ0NFxEWFhYRFRgaHiggGBolGxMVITEhJykvLjEuFx8zOTMuNyk5LjcBCgoKDg0OGxAQGCsmHSUtMistKy0zLy8rLS4rKysrLS0tLSsyNy0tLS0vLS0rLS0tMjcrLS0tLSstLS0tLS0tLf/AABEIAOsA1gMBEQACEQEDEQH/xAAcAAEAAgMBAQEAAAAAAAAAAAAAAQIEBQYHAwj/xABMEAACAQIBBQkJDAgHAQAAAAAAAQIDEQQFBhIhMRNBUVRhcYGRsQcUIjJSoaLB0RczU2JjcnOTlLPS4xUkNIKSsuHwFiM1QoPC8SX/xAAaAQEBAAMBAQAAAAAAAAAAAAAAAQIEBQMG/8QAOhEBAAECAgQLBwMDBQAAAAAAAAECAwQREiExUgUTFDJBUWFxgaGxM2KRwdHh8BU0oiJCUyMkY3Lx/9oADAMBAAIRAxEAPwD3EAAAAAAADR5azpw2Dbg5OrVW2nSs3F/GeyPNt5D3t4euvX0PC5iKKNXS5TG5+4id1SpUqK5b1J9epeY26cHRG2c2pVjK52Rk02IzlxtTxsXVX0dqf8qR6xYtx/a8Zv3J/uYFXKFeXjYitL51Wcu1npFFMdEMNOrrljTm3tbfO2ypmqptbG1zOwH0hj60fFr1o/Nqzj2Mx0aZ6IZadXXLLoZyY2n4uMr/AL890/nuYTZtz/bDOL1yNlUtxk/uhYum0qsaeJjv3W5VH0x1eieVWEonZqetOLrjbrdzkDObDY9WpycKqV3RqWVRLhW9Jcq6bGlcs1W9uxu271NzZtbo8nqAAAAAAAAAAAAAAAAAHM58ZclhKUaVKWjVrX8JbadNbZLgbukungNrDWorqznZDVxV2aKco2y8ybOm5jNwWRsTiI6dLD1KkfKStF8zdk+g86rtFOqZelNquqM4hh4vDVKMnCrTnSmtejOLi7cK4VymVNUVRnEsaqZpnKYfBsyYqtkVVsCrYFWFVYE06soSjOEnCcWpRlF2lGS3094kxnqkictcPXcyM5f0hScalliKNlUtqVSL2VEujWt586OZfs8XOrY6li9xka9sOlNd7gAAAAAAAAAAAAAAADy/ugVtLHTj8HTpw8zn/wBzqYSMrbl4uc7jXZs4COKxdCjPXBtymuGEYuWj02S6T0vV6FEzDzs0adcRL2CEVFKKSSSSSSsklsSOO7DS545MhicHWulp0oSrU5f7oyirtczSs/6Hth65prjteOIoiuiex4+2dZyVWwKtgVYVVgVbIKtgbnM3KDw2Pws09U5qhNcMKjUdfIpOL/dPK/TpW5+L1s1aNyJ8Pi9uOS6wAAAAAAAAAAAAAAAA8nz4f/0MT/xfcwOthvZR+dLk4n2s/nQ12RMovCYijXS0lCXhRW2UGnGSXLZvpsZ3KNOmaWFuvQqip7Bk/H0sTBVKNSNSL8l64vga2p8jORVRVTOUw69NdNUZxLns+M4aVChVw0JqderF03GLvuUJK0pS4HZuy26zYw9maqoqnZDXxN6KaZpjbLyxs6TmqtgVbCqsCGwKtkFWwr75Mf6xhvp6P3kTGvmz3LRzo736BOM7IAAAAAAAAAAAAAAAA8mz5/1DE/8AF9zA62G9lH50uTifaz+dDQNnu8FbkVQCrYFWwqGBVsCrZBVsKq2B98mP9Yw309H7yJjXzZ7lo50d79BnGdkAAAAAAAAAAAAAAAAcjl3Mp4zEVcR30qe6aHgbjp6OjCMdumr+LwG3axWhTFOTUu4XTqmrS8mv9zh8eX2b8w9OW+75/Z58i97y+6Pc3fHl9m/MJy33fP7HIve8vuj3NXx9fZvzBy33fP7HIve8vuj3NHx9fZvzBy33fP7LyL3vL7o9zN8fX2b8wct93z+xyOd7y+7g8bQ3KrWpX0tyqVKela2loycb23thuUznES06oymYY7ZUVbAq2FVbAyMlv9Yw309H7yJjXzZ7mVHOjvfoQ4zsAAAAAAAAAABWpUUE5Skoxim3KTSjFcLe8WIz2JM5bXI5Wz7pU244em67WrdJNwpX5N+Xm5zbt4OqddU5NS5jKY1Uxm53EZ646eypTpclOlFr0rmxGFtx0NacVcnpY7zwyhxp/VUPwGXJrW76pym7veiHnhlDjT+pofgHJrW76nKbu96KvPHKHG39TQ/AOTWt31OU3d70Q88socbf1OH/AAE5Na3fU5Rd3vRV555R42/qcP8AgHJrW76nKLu96KvPTKPG39Th/wAA5Na3fVeUXd70Q89Mo8bf1OH/AADk1rd9TlF3e9EPPXKPHH9Th/wDk9rd9TlF3e9Ghr1pVJTnJ3lOUpydkryk7t2Wraz2iMoyh5TOc5y+TYRVsKo2BVsDIyX+0Yb6ej95Exr5s9zKnnR3vf8AGVHGN07O6PmcfdrtWtKicpzdy1TFVWUsLvqfleaPsONy/Eb/AJR9GzxVHUd9T8rzR9g5fiN/yj6HFUdS0cbNbbS51Y9KOE71POyn87GM2KZ2MyhiFPZqe+mdjDYyi/GrVPU8K7c0vsbTzAAACJNJNt2S1tvUkgPLs7M45Y2bpwbjhoPwVs3Vr/fL1L1nVsWItxnO1yr9+bk5Rsc6zYa6GwKtgUbAq2RVWwKtgVYVDAq2QVbAq2FVbAq2BVsDJyV+0Yb6ej95Exr5s9zKnnR3vfcf4nSj5XhP2HjDvWOc1x8820XAgipjNxaadmi0XKqKoqpnXBNMTGUtvQq6cVLr5GfV4e/F63FcfkufXTozk+h7sQABy/dAyk6OGVGLtPENwfDuS1z67xXNJm1hKNKvOehq4u5o0ZR0vNGdNzFWwKtgVbAq2RVWwKtgVYVVgVbIKtgVbCqtgVbAq2QQBlZK/aMN9PR+8iSvmz3MqedHe99yh4nSj5XhT2HjDvWOc1tz51touRUNkVFyDMyXU1yjwq65/wC+w6/BF7Kuq3PTr/Pzoa+Ip1RLZHfagAA8z7oeK08Yqd9VGlGNuCcryfmceo6eEpyt59bmYurO5l1OWbNpqqtgVbAq2RVWwKtgVbCqsCGyCjYFWwqrYFWwKtgQQANtmng3iMfgqa+GhUfzIPTl5ovrPO7Vo0TL0tU6VcQ9uylLwYrhd+pf1Pk+Fq8rdNPXPp/67uHjXMtc2cFtouYqi5FRcg+mFnozg+VLoer1mxg7mhfoq7fXUxuU50TDeH2DmgADxvOOvumMxc/lpxXNF6C80UdmzGVuI7HGvTncme1rGz0earYFWyKq2BVsCrYVVgQ2BVsgq2FVbAq2BVsCpAAAeqdzHNyWHhLG1ouNStHRpQkvChQum5PgcrLoS4bGhirsVTow38NayjSl02MracnbYtS9p8Xj8Rx13ONkaodm1Ro0se5pPVDZM1VuYqi5MxFyZq6GnK6T4UmfcW69OiKuuM3KmMpyWM0APDcTU0p1JeVOUuttnciMoycOqc5mXxbKirZFVbAo2BVsKhgVbAzMJkfFV0nSwtepF7JRpy0H+9a3nPOq5TTtlnTbqq2RLJeamUOJVfR9pjx9veZcRc3UPNTKHEqvo+0cfb3l4i5uqvNPKHEqvo+0cfb3jiLm6q80socRq+j7Rx9veOIubqP8I5R4jW9D2k4+3vHE3N0/wjlHiNb0PaOPt7xxNzdffC5j5RqtLvXc15VWpTjFc6TcupEnEW46VjD3J6Hb5s9z2lhpRrYmSxNWNpRglbD05cNnrm+V2XJvmrdxU1RlTqhtWsLFOurXLp8bi73jF879SPmcfwhExNu1PfPyj6upas9NTAucRtIuQQRUXJmqCKi5jmN7gnenT+al1aj7LAznhqO6HMvRlXL7m28wDwiorNrgbXUzuQ4cqNgVbAq2BVsKqwMzI+Sq2OqqjRjd7ZSeqFOPlSe8jC5ciiM5Z0W5rnKHqWQsz8LgUpyiq9Za3WrJWi/iR2R7eU5d/FTMZzOUOlaw1NPRnLdzxsVsu+bUjkV8KWadVOc/na3IsVSp3+vJfWjz/VqdyWXET1nf68l9aH6tTuScRPWd/ryX1ofq1O5JxE9Z3+vJfWh+rU7knET1nf68l9aJ+rUbknJ560fpBeS+tD9Xo3JOTz1qyyjwQ62edXDG7R8ZZRh+uWNWxMp7XZcC1I51/G3r2qqdXVGx7UWqadj4XNR6IuRVbkEGKhFVuQRcit7k73qHM+1n2HBv7Wju+bmX/aSyTeeQB4jlmlueJxUPJr1UubTdvMdq3OdET2OLcjKuY7WC2ZMVWwKtgVYVNKnKpKMIRcpzkoRitspt2SXSyTOUZyRGeqHtObuR6eTcMqas5u0q1RbalTk5FsSOLisTERNyrZDsWLOjEUxtWrVnN3ezeW8j5TEYmu/VnVs6I6nRooimNT5muzAAACLkEXIqGyKi5BVsxzVBFRcmaoIIuTNUNmKobIqrZB0WDjanTXxV2H22Cp0cPRHZHo5V2c65732Np5gHkmfuG3LH1nvVYwqrmcdF+lCR1cNVnbhysTTlclzjZ7vBVsCrYVDA6nubYFVsdujV1h6cqi4N0dox80pPoNbFVZUZdbZwtOdefU9MyhPWo8Gt858jwrdmaotx3u3Yp1ZsM5DYAAACCKi5BW5iqLkVFyCCKgioMVRcmYrciouRUXIqacdKUY+U0utmVuiblcUR0zl8UqnRiZdMlY+9iMoyhxklADge6lgtWGxKWxyoTfP4UOyfWb2Dq20+LRxlOyrwefNm80VWwqrAq2Qd73JF/mY5/FodtT2GnjNlPj8m5g9tXh83a4z3yXR2I+L4Qn/cVeHpDt2uZD4Gk9QCLkEXIqLkVFyCGyZqrcxVFyZiCKgiouRUXIIbMVVbIqCKzsj0tKppb0Ffpepes63A1jTv6c7KY851R82tiq8qMutvD6xzQABg5cybHGYeth5atOPgy8iotcZdDSM7dehVFTC5Rp0zS8RxVCdGc6VSLhOnJwlF70l/e07ETExnDkTExOUvgyohsCrZB33cj8fH/Nw/bVNPGbKfH5N3B7avD5u0xnvkujsR8Xwh+4q8PSHbtcyHxNJ6IuRUXIKtkVDZiqLkEEVFyZqgiouYiLkVVsiouQRcioIqCDocnYfc6aT8aXhS5HwH2fBuFnD2IirnTrn6eDlX7mnXq2Mo6DxAAADmM8M0449brTcaeJiraT8StHejO2x8D7d7YsX5t6p2Ne/Yi5rja8synk6vhJaFejOi72TkvAl82WyXQzo010166Zc6qiqjnQw2zJiq2B3/AHIvHx/zcP21TSxmynx+Tdwe2rw+btcb75Lo7EfF8IfuKvD0h27PMhjmi9UNkVFyCLkVFyKrcmYi5jmqLkVFyZiLkzVDZjmqGyZqi5MxBFEr6krvgWtsRE1TlGuSdTa5Oyc01OorW1xjy8LPouDeCqoqi7ejZsj5z9GlfxETGjT8W1PoWiAAAAABWcFJNNKSe1NXTAwZZEwjd3gsM3wuhSb7DPjK+uWHF0dUI/QOD4jhfs9L2Dja96Ti6N2GRhMn0KGk6NClR0raW5U4U9K17Xste19ZJqqq2ysU007IYeO98l0diPluEf3NXh6Q6FnmQx2zReqLkFbmOaoIqGyK21J0dGN9yvZXvo3vY+mtVYLi6dLQzyjqaNUXc5yz81tKh8l6B6aWA/4/4scr3b5mlQ+R9AmlgOu3/EyvdvmaVD5H0BpcH9dv+K5Xu3zRpYfho+gNPg/rt/xMr3b5ieH+R9ARVwfM5Rxf8TK92+b7d7U/g4fwxNnklj/HT8IefGV70ne1P4OH8MRyTD/46fhBxte9J3tT+Dh/DEckw/8Ajp+EHG170rwpqOyKjzJI9aLdFHNiI7mM1TO2VjNAAAAAAAAAAAAanHe+S6OxHy/CP7mrw9Ib1nmQxrmg9kXIIuRUEVBiqLkzFWyKi5FRciouYi1HxofOj2npZ9rT3x6pVzZdOffOMAAAAAAAAAAAAAAAANPj/fJdH8qPleEv3NXh6Q37HMhjXNB7IuTMQRUEVFyKi5BDZirIwWEdZvXaK2v1I3sDgasVVOvKmNs/KHldvRbjtZ8skwtqlJPhdmdirgOzNOVNU5+H0asYurPXENTiKLpycZbV1NcJ87icPXYuTbr2+va3qK4rpzhWj40PnR7TCx7Wnvj1Wvmy6g+/cYAAAAAAAAAAAAAAAAajKUbVHypP1eo+X4Vp0cRM9cRPy+Tfw850MS5zc3ugiouY5iLkVVsiouQRcit3kdrctW3Sd+f/AMsfWcDTTOG1bc5z/O7JzsVnxjOOq1mny41pQ4dF35r6vWfM8PTHGUR05T66vm38HnoywcLHSqU18aPVfWcnC0TXfopjrj1bNycqJnsdMfeOOAAAAAAAAAAAAAAAAMXH4fdI3XjR2cq4DncI4Sb9vOnnRs7ex7WbmhOvY0zPlZ1OircxEXIqGyKhsxVFyCCK++ExcqTutae2L2M3MHjbmFqzp1xO2PzZLyu2ouRrZ8ssK2qm78r1HXq4ep0f6aJz7Z1NaMHOeuWrrVXOTlJ3b/uxwL16u9XNdc65blNMUxlDZ5IwjX+bJb1ork8o73A2CmP9euP+v1+jTxV3P+iPFtT6FpAAAAAAAAAAAAAAAAABi4vBRqa14MuFbHznOxnB1vEf1Rqq6+vve9q/NGroaqvhJw2xuuGOtHzuIwN+zzqdXXGuPt4t2i7RVsljXNLN6ouRUEVBAAAfWjh51PFi3y73We9jC3r/ALOmZ7ej47GFdymjnS2mEyWo2lNqT8leKufhPoMHwNTbnTvTnPV0ff0aV3FTOqnU2R3GoAAAAAAAAAAAAAAAAAAAAA+NXC05+NBPl2PrRrXcHYu8+iO/p+Ma3pTdrp2Sxp5JpvY5R6U15zQr4Ew9XNmY/O17Ri6425Pi8jcFTrjf1mtVwDHRc8vuz5Z7osjfK+j/AFEcA9dzy+5yz3X0hkiC2yk+pI96OA7Ec6qqfh9GM4uvoiGTSwNKOyC55eF2m7a4Ow1vm0R46/V41X7lW2WQbryAAAAAAAAAAAAAAAAAAAAAAAAAAAAAAAAAAAAAAAAAAAAAAAAAAAABcCNICNMCNMBugDdAG6ATpgNICbgSAAAAAAAAAAAAAAAAAAKNgVbAo2BVsCNICNIBpANICykBKYF0wLJgXTAkAAAAAAAAAAAAAAABDiBRwAq4AVcAI0AI0AGgA0AJUALKAFlAC6iBYAAAAAAAAAAAAAAAAAAAACwEWAWAWAWAWAkAAAAAAAAAAAAAH//Z;" parent="SggKGLeIlBfDRfWy77FJ-22" vertex="1">
          <mxGeometry x="7.105427357601003e-14" y="122.19101123595505" width="111.2720224719101" height="122.19101123595505" as="geometry" />
        </mxCell>
        <mxCell id="TptH-x_JvI9MC0Yq97Ju-48" value="" style="strokeColor=#dddddd;shadow=1;strokeWidth=1;rounded=1;absoluteArcSize=1;arcSize=2;" parent="SggKGLeIlBfDRfWy77FJ-22" vertex="1">
          <mxGeometry x="188.98000000000005" y="139.29775280898875" width="140.00000000000003" height="87.97752808988764" as="geometry" />
        </mxCell>
        <mxCell id="TptH-x_JvI9MC0Yq97Ju-49" value="Cloud&#xa;Storage" style="editableCssRules=.*;html=1;fontColor=#999999;shape=image;verticalLabelPosition=middle;verticalAlign=middle;labelPosition=right;align=left;spacingLeft=20;part=1;points=[];imageAspect=0;image=data:image/svg+xml,PHN2ZyB4bWxucz0iaHR0cDovL3d3dy53My5vcmcvMjAwMC9zdmciIHhtbG5zOnY9Imh0dHBzOi8vdmVjdGEuaW8vbmFubyIgd2lkdGg9IjIwIiBoZWlnaHQ9IjE2IiB2aWV3Qm94PSIwIDAgMjAgMTYiPiYjeGE7CTxzdHlsZSB0eXBlPSJ0ZXh0L2NzcyI+JiN4YTsJLnN0MHtmaWxsOiM0Mjg1ZjQ7fSYjeGE7CS5zdDF7ZmlsbDojNjY5ZGY2O30mI3hhOwkuc3Qye2ZpbGw6I2FlY2JmYTt9JiN4YTsJLnN0M3tmaWxsOiNmZmY7fSYjeGE7CTwvc3R5bGU+JiN4YTsJPHBhdGggY2xhc3M9InN0MiIgZD0iTTAgMGgyMHY3SDB6Ii8+JiN4YTsJPHBhdGggY2xhc3M9InN0MSIgZD0iTTE4IDBoMnY3aC0yeiIvPiYjeGE7CTxwYXRoIGNsYXNzPSJzdDAiIGQ9Ik0xOCA3bDItN2gtMnoiLz4mI3hhOwk8cGF0aCBjbGFzcz0ic3QxIiBkPSJNMCAwaDJ2N0gweiIvPiYjeGE7CTxnIGNsYXNzPSJzdDMiPiYjeGE7CQk8cGF0aCBkPSJNNCAzaDZ2MUg0eiIvPiYjeGE7CQk8cmVjdCB4PSIxMyIgeT0iMiIgd2lkdGg9IjMiIGhlaWdodD0iMyIgcng9IjEuNSIvPiYjeGE7CTwvZz4mI3hhOwk8cGF0aCBjbGFzcz0ic3QyIiBkPSJNMCA5aDIwdjdIMHoiLz4mI3hhOwk8cGF0aCBjbGFzcz0ic3QxIiBkPSJNMTggOWgydjdoLTJ6Ii8+JiN4YTsJPHBhdGggY2xhc3M9InN0MCIgZD0iTTE4IDE2bDItN2gtMnoiLz4mI3hhOwk8cGF0aCBjbGFzcz0ic3QxIiBkPSJNMCA5aDJ2N0gweiIvPiYjeGE7CTxnIGNsYXNzPSJzdDMiPiYjeGE7CQk8cGF0aCBkPSJNNCAxMmg2djFINHoiLz4mI3hhOwkJPHJlY3QgeD0iMTMiIHk9IjExIiB3aWR0aD0iMyIgaGVpZ2h0PSIzIiByeD0iMS41Ii8+JiN4YTsJPC9nPiYjeGE7PC9zdmc+;" parent="TptH-x_JvI9MC0Yq97Ju-48" vertex="1">
          <mxGeometry width="30" height="24" relative="1" as="geometry">
            <mxPoint x="15" y="18" as="offset" />
          </mxGeometry>
        </mxCell>
        <mxCell id="TptH-x_JvI9MC0Yq97Ju-51" style="edgeStyle=orthogonalEdgeStyle;rounded=0;orthogonalLoop=1;jettySize=auto;html=1;entryX=0.5;entryY=0;entryDx=0;entryDy=0;" parent="SggKGLeIlBfDRfWy77FJ-22" target="TptH-x_JvI9MC0Yq97Ju-47" edge="1">
          <mxGeometry relative="1" as="geometry">
            <mxPoint x="56.915000000000035" y="53.764044943820224" as="sourcePoint" />
          </mxGeometry>
        </mxCell>
        <mxCell id="TptH-x_JvI9MC0Yq97Ju-52" value="Dataset" style="rounded=1;whiteSpace=wrap;html=1;arcSize=4;fillColor=#dae8fc;strokeColor=#6c8ebf;fontSize=13;fontStyle=1" parent="SggKGLeIlBfDRfWy77FJ-22" vertex="1">
          <mxGeometry x="70.10000000000002" y="73.31460674157303" width="66.94000000000001" height="19.550561797752806" as="geometry" />
        </mxCell>
        <mxCell id="TptH-x_JvI9MC0Yq97Ju-53" value="" style="endArrow=none;html=1;rounded=0;exitX=0.152;exitY=0.985;exitDx=0;exitDy=0;exitPerimeter=0;" parent="SggKGLeIlBfDRfWy77FJ-22" source="TptH-x_JvI9MC0Yq97Ju-47" edge="1">
          <mxGeometry width="50" height="50" relative="1" as="geometry">
            <mxPoint x="10.770000000000055" y="249.2696629213483" as="sourcePoint" />
            <mxPoint x="17.770000000000056" y="435" as="targetPoint" />
          </mxGeometry>
        </mxCell>
        <mxCell id="TptH-x_JvI9MC0Yq97Ju-54" value="Extract Data" style="rounded=1;whiteSpace=wrap;html=1;fontSize=11;fontStyle=1;fillColor=#fff2cc;strokeColor=#d6b656;" parent="SggKGLeIlBfDRfWy77FJ-22" vertex="1">
          <mxGeometry x="60.77000000000007" y="259.0449438202247" width="90.00000000000001" height="24.43820224719101" as="geometry" />
        </mxCell>
        <mxCell id="TptH-x_JvI9MC0Yq97Ju-55" value="" style="endArrow=classic;html=1;rounded=0;entryX=0;entryY=0.5;entryDx=0;entryDy=0;" parent="SggKGLeIlBfDRfWy77FJ-22" target="TptH-x_JvI9MC0Yq97Ju-54" edge="1">
          <mxGeometry width="50" height="50" relative="1" as="geometry">
            <mxPoint x="20.770000000000056" y="271.752808988764" as="sourcePoint" />
            <mxPoint x="70.77000000000007" y="171.06741573033707" as="targetPoint" />
          </mxGeometry>
        </mxCell>
        <mxCell id="TptH-x_JvI9MC0Yq97Ju-58" value="Load" style="rounded=1;whiteSpace=wrap;html=1;arcSize=4;fillColor=#dae8fc;strokeColor=#6c8ebf;fontSize=13;fontStyle=1" parent="SggKGLeIlBfDRfWy77FJ-22" vertex="1">
          <mxGeometry x="113.83000000000004" y="151.51685393258427" width="66.94000000000001" height="19.550561797752806" as="geometry" />
        </mxCell>
        <mxCell id="TptH-x_JvI9MC0Yq97Ju-59" value="Bucket" style="rounded=1;whiteSpace=wrap;html=1;fontSize=11;fontStyle=1;fillColor=#fff2cc;strokeColor=#d6b656;" parent="SggKGLeIlBfDRfWy77FJ-22" vertex="1">
          <mxGeometry x="238.98000000000008" y="243.77595505617975" width="90.00000000000001" height="24.43820224719101" as="geometry" />
        </mxCell>
        <mxCell id="TptH-x_JvI9MC0Yq97Ju-60" value="" style="endArrow=none;html=1;rounded=0;exitX=0.152;exitY=0.985;exitDx=0;exitDy=0;exitPerimeter=0;" parent="SggKGLeIlBfDRfWy77FJ-22" edge="1">
          <mxGeometry width="50" height="50" relative="1" as="geometry">
            <mxPoint x="195.98000000000008" y="227.15797752808987" as="sourcePoint" />
            <mxPoint x="195.9600000000001" y="347.02247191011236" as="targetPoint" />
          </mxGeometry>
        </mxCell>
        <mxCell id="TptH-x_JvI9MC0Yq97Ju-61" value="" style="endArrow=classic;html=1;rounded=0;entryX=0;entryY=0.5;entryDx=0;entryDy=0;" parent="SggKGLeIlBfDRfWy77FJ-22" target="TptH-x_JvI9MC0Yq97Ju-59" edge="1">
          <mxGeometry width="50" height="50" relative="1" as="geometry">
            <mxPoint x="198.98000000000008" y="256.48382022471907" as="sourcePoint" />
            <mxPoint x="248.98000000000008" y="155.7984269662921" as="targetPoint" />
          </mxGeometry>
        </mxCell>
        <mxCell id="TptH-x_JvI9MC0Yq97Ju-62" value="" style="endArrow=classic;html=1;rounded=0;entryX=0;entryY=0.5;entryDx=0;entryDy=0;" parent="SggKGLeIlBfDRfWy77FJ-22" target="TptH-x_JvI9MC0Yq97Ju-63" edge="1">
          <mxGeometry width="50" height="50" relative="1" as="geometry">
            <mxPoint x="198.98000000000008" y="305.96629213483146" as="sourcePoint" />
            <mxPoint x="248.98000000000008" y="205.28089887640448" as="targetPoint" />
          </mxGeometry>
        </mxCell>
        <mxCell id="TptH-x_JvI9MC0Yq97Ju-63" value="Load CSV/Json" style="rounded=1;whiteSpace=wrap;html=1;fontSize=11;fontStyle=1;fillColor=#fff2cc;strokeColor=#d6b656;" parent="SggKGLeIlBfDRfWy77FJ-22" vertex="1">
          <mxGeometry x="238.98000000000008" y="293.2584269662921" width="90.00000000000001" height="24.43820224719101" as="geometry" />
        </mxCell>
        <mxCell id="TptH-x_JvI9MC0Yq97Ju-64" style="edgeStyle=orthogonalEdgeStyle;rounded=0;orthogonalLoop=1;jettySize=auto;html=1;exitX=1;exitY=0.5;exitDx=0;exitDy=0;entryX=0.004;entryY=0.415;entryDx=0;entryDy=0;entryPerimeter=0;" parent="SggKGLeIlBfDRfWy77FJ-22" target="TptH-x_JvI9MC0Yq97Ju-15" edge="1" source="SggKGLeIlBfDRfWy77FJ-6">
          <mxGeometry relative="1" as="geometry">
            <mxPoint x="628.9800000000001" y="171.63438202247195" as="sourcePoint" />
            <mxPoint x="747.0200000000001" y="173.02247191011236" as="targetPoint" />
          </mxGeometry>
        </mxCell>
        <mxCell id="TptH-x_JvI9MC0Yq97Ju-67" value="Load" style="rounded=1;whiteSpace=wrap;html=1;arcSize=4;fillColor=#dae8fc;strokeColor=#6c8ebf;fontSize=13;fontStyle=1" parent="SggKGLeIlBfDRfWy77FJ-22" vertex="1">
          <mxGeometry x="647.0200000000001" y="143.69662921348313" width="66.94000000000001" height="19.550561797752806" as="geometry" />
        </mxCell>
        <mxCell id="TptH-x_JvI9MC0Yq97Ju-68" value="Create Dataset" style="rounded=1;whiteSpace=wrap;html=1;fontSize=11;fontStyle=1;fillColor=#fff2cc;strokeColor=#d6b656;" parent="SggKGLeIlBfDRfWy77FJ-22" vertex="1">
          <mxGeometry x="791.0600000000002" y="236.07303370786516" width="90.00000000000001" height="24.43820224719101" as="geometry" />
        </mxCell>
        <mxCell id="TptH-x_JvI9MC0Yq97Ju-69" value="" style="endArrow=none;html=1;rounded=0;exitX=0.152;exitY=0.985;exitDx=0;exitDy=0;exitPerimeter=0;" parent="SggKGLeIlBfDRfWy77FJ-22" edge="1">
          <mxGeometry width="50" height="50" relative="1" as="geometry">
            <mxPoint x="748.0600000000001" y="219.45505617977526" as="sourcePoint" />
            <mxPoint x="747.0200000000001" y="407.62921348314603" as="targetPoint" />
          </mxGeometry>
        </mxCell>
        <mxCell id="TptH-x_JvI9MC0Yq97Ju-70" value="" style="endArrow=classic;html=1;rounded=0;entryX=0;entryY=0.5;entryDx=0;entryDy=0;" parent="SggKGLeIlBfDRfWy77FJ-22" target="TptH-x_JvI9MC0Yq97Ju-68" edge="1">
          <mxGeometry width="50" height="50" relative="1" as="geometry">
            <mxPoint x="751.0600000000001" y="248.78089887640448" as="sourcePoint" />
            <mxPoint x="801.0600000000002" y="148.09550561797752" as="targetPoint" />
          </mxGeometry>
        </mxCell>
        <mxCell id="TptH-x_JvI9MC0Yq97Ju-71" value="" style="endArrow=classic;html=1;rounded=0;entryX=0;entryY=0.5;entryDx=0;entryDy=0;" parent="SggKGLeIlBfDRfWy77FJ-22" target="TptH-x_JvI9MC0Yq97Ju-72" edge="1">
          <mxGeometry width="50" height="50" relative="1" as="geometry">
            <mxPoint x="751.0600000000001" y="298.2633707865168" as="sourcePoint" />
            <mxPoint x="801.0600000000002" y="197.5779775280899" as="targetPoint" />
          </mxGeometry>
        </mxCell>
        <mxCell id="TptH-x_JvI9MC0Yq97Ju-72" value="Create Table" style="rounded=1;whiteSpace=wrap;html=1;fontSize=11;fontStyle=1;fillColor=#fff2cc;strokeColor=#d6b656;" parent="SggKGLeIlBfDRfWy77FJ-22" vertex="1">
          <mxGeometry x="791.0600000000002" y="285.55550561797753" width="90.00000000000001" height="24.43820224719101" as="geometry" />
        </mxCell>
        <mxCell id="TptH-x_JvI9MC0Yq97Ju-77" value="Queries" style="rounded=1;whiteSpace=wrap;html=1;fontSize=11;fontStyle=1;fillColor=#fff2cc;strokeColor=#d6b656;" parent="SggKGLeIlBfDRfWy77FJ-22" vertex="1">
          <mxGeometry x="791.0600000000002" y="339.2022471910112" width="90.00000000000001" height="24.43820224719101" as="geometry" />
        </mxCell>
        <mxCell id="TptH-x_JvI9MC0Yq97Ju-78" value="" style="endArrow=classic;html=1;rounded=0;entryX=0;entryY=0.5;entryDx=0;entryDy=0;" parent="SggKGLeIlBfDRfWy77FJ-22" target="TptH-x_JvI9MC0Yq97Ju-77" edge="1">
          <mxGeometry width="50" height="50" relative="1" as="geometry">
            <mxPoint x="751.0600000000001" y="351.91011235955057" as="sourcePoint" />
            <mxPoint x="801.0600000000002" y="251.22471910112358" as="targetPoint" />
          </mxGeometry>
        </mxCell>
        <mxCell id="SggKGLeIlBfDRfWy77FJ-1" value="&lt;b&gt;External Data&lt;/b&gt;" style="rounded=1;whiteSpace=wrap;html=1;fillColor=#dae8fc;strokeColor=#6c8ebf;" vertex="1" parent="SggKGLeIlBfDRfWy77FJ-22">
          <mxGeometry width="120.00000000000003" height="58.651685393258425" as="geometry" />
        </mxCell>
        <mxCell id="SggKGLeIlBfDRfWy77FJ-3" value="" style="endArrow=classic;html=1;rounded=0;entryX=0;entryY=0.5;entryDx=0;entryDy=0;" edge="1" parent="SggKGLeIlBfDRfWy77FJ-22">
          <mxGeometry width="50" height="50" relative="1" as="geometry">
            <mxPoint x="20.770000000000056" y="337.24719101123594" as="sourcePoint" />
            <mxPoint x="60.769999999999996" y="337.24719101123594" as="targetPoint" />
          </mxGeometry>
        </mxCell>
        <mxCell id="SggKGLeIlBfDRfWy77FJ-4" value="Push data to GCS" style="rounded=1;whiteSpace=wrap;html=1;fontSize=11;fontStyle=1;fillColor=#fff2cc;strokeColor=#d6b656;" vertex="1" parent="SggKGLeIlBfDRfWy77FJ-22">
          <mxGeometry x="60.77000000000007" y="322.5842696629213" width="90.00000000000001" height="24.43820224719101" as="geometry" />
        </mxCell>
        <mxCell id="SggKGLeIlBfDRfWy77FJ-8" value="" style="group" vertex="1" connectable="0" parent="SggKGLeIlBfDRfWy77FJ-22">
          <mxGeometry x="418.98000000000013" y="117.30337078651685" width="180.00000000000003" height="118.76966292134831" as="geometry" />
        </mxCell>
        <mxCell id="SggKGLeIlBfDRfWy77FJ-6" value="Dataflow" style="sketch=0;html=1;verticalAlign=top;labelPosition=center;verticalLabelPosition=bottom;align=center;spacingTop=-6;fontSize=11;fontStyle=1;fontColor=#999999;shape=image;aspect=fixed;imageAspect=0;image=data:image/svg+xml,PHN2ZyB4bWxucz0iaHR0cDovL3d3dy53My5vcmcvMjAwMC9zdmciIHhtbG5zOnY9Imh0dHBzOi8vdmVjdGEuaW8vbmFubyIgd2lkdGg9IjE0LjUxOTk5OTUwNDA4OTM1NSIgaGVpZ2h0PSIyMCIgdmlld0JveD0iMCAwIDE0LjUxOTk5OTUwNDA4OTM1NSAyMCI+JiN4YTsJPHN0eWxlIHR5cGU9InRleHQvY3NzIj4mI3hhOwkuc3Qwe2ZpbGwtcnVsZTpldmVub2RkfSYjeGE7CS5zdDF7ZmlsbDojNjY5ZGY2O30mI3hhOwkuc3Qye2ZpbGw6I2FlY2JmYTt9JiN4YTsJLnN0M3tmaWxsOiM0Mjg1ZjQ7fSYjeGE7CTwvc3R5bGU+JiN4YTsJPGcgY2xhc3M9InN0MCI+JiN4YTsJCTxwYXRoIGNsYXNzPSJzdDEiIGQ9Ik03LjM3IDIuMDNsLTEuNzIuOTYgMS41MiAxLjUtLjAyIDEuNzMgMS4wMi4wMS4wMi0xLjczIDQuMjQgMi41Ni0uMDEgMS4wNyAxLjc3LjAzVjYuMTFMOS4wNSAzLjA0bC0uMjctLjk0eiIvPiYjeGE7CQk8cGF0aCBjbGFzcz0ic3QyIiBkPSJNNy4zNiAyLjAzbC0xLjQyLjM1LS4yOS42MUwuMzkgNS45Mi4zNiA3Ljk3IDIuMTQgOGwuMDItMS4wNyA0LjMxLTIuNDUtLjAyIDEuNzMuODYuMDEuMDYtNC4xOXoiLz4mI3hhOwkJPGcgY2xhc3M9InN0MSI+JiN4YTsJCQk8cGF0aCBkPSJNNy4zNiAyLjAzTDMuOTUgMCAyLjIxLjk1bDMuNDQgMi4wNCAxLjcyLS45NnptLjcxIDExLjc2bC0xLjcyLS4wMi0uMDIgMS43Mi44MiAyLjQ4IDEuNDItLjEyLjI5LS44NSA1LjI3LTIuOTMuMDMtMi4wOS0xLjc5LS4wMi0uMDIgMS4xLTQuMyAyLjQ1eiIvPiYjeGE7CQkJPHBhdGggZD0iTTcuMTUgMTcuOTdsLTMuNDYgMS45NGgtLjA1bC0xLjY2LS45OSAzLjQ5LTEuOTYgMS42OCAxLjAxeiIvPiYjeGE7CQk8L2c+JiN4YTsJCTxwYXRoIGNsYXNzPSJzdDMiIGQ9Ik0xMC44OC4wOWgtLjA1TDcuMzcgMi4wM2wxLjY4IDEuMDEgMy40OS0xLjk2ek0xMC42MiAyMGgtLjA1bC0zLjQyLTIuMDNoMCAwIDBsMS43Mi0uOTYgMy40NCAyLjA0eiIvPiYjeGE7CQk8cGF0aCBjbGFzcz0ic3QyIiBkPSJNLjMzIDEzLjg5di0yaDEuNzZsLS4wMSAxLjA0IDQuMjUgMi41Ni4wMi0xLjcyLjg2LjAxLS4wNiA0LjE4LTEuNjgtMXoiLz4mI3hhOwk8L2c+JiN4YTsJPGNpcmNsZSBjbGFzcz0ic3QyIiBjeD0iMTMuMzgiIGN5PSIxMC4wNCIgcj0iMS4xNCIvPiYjeGE7CTxjaXJjbGUgY2xhc3M9InN0MiIgY3g9IjEuMTQiIGN5PSI5Ljg4IiByPSIxLjE0Ii8+JiN4YTsJPGNpcmNsZSBjbGFzcz0ic3QyIiBjeD0iNy4zMiIgY3k9IjcuOTkiIHI9IjEuMTQiLz4mI3hhOwk8Y2lyY2xlIGNsYXNzPSJzdDIiIGN4PSI3LjIzIiBjeT0iMTIiIHI9IjEuMTQiLz4mI3hhOzwvc3ZnPg==;" vertex="1" parent="SggKGLeIlBfDRfWy77FJ-8">
          <mxGeometry x="96.57123347802765" width="81.5539627799056" height="110.49218886575657" as="geometry" />
        </mxCell>
        <mxCell id="SggKGLeIlBfDRfWy77FJ-7" value="" style="shape=image;verticalLabelPosition=bottom;labelBackgroundColor=default;verticalAlign=top;aspect=fixed;imageAspect=0;image=data:image/jpeg,/9j/4AAQSkZJRgABAQAAAQABAAD/2wCEAAkGBxANDw0OEA0PDQ8PEBAOEA8NDxAPDQ0NFxEWFhYRFRgaHiggGBolGxMVITEhJykvLjEuFx8zOTMuNyk5LjcBCgoKDg0OGxAQGCsmHSUtMistKy0zLy8rLS4rKysrLS0tLSsyNy0tLS0vLS0rLS0tMjcrLS0tLSstLS0tLS0tLf/AABEIAOsA1gMBEQACEQEDEQH/xAAcAAEAAgMBAQEAAAAAAAAAAAAAAQIEBQYHAwj/xABMEAACAQIBBQkJDAgHAQAAAAAAAQIDEQQFBhIhMRNBUVRhcYGRsQcUIjJSoaLB0RczU2JjcnOTlLPS4xUkNIKSsuHwFiM1QoPC8SX/xAAaAQEBAAMBAQAAAAAAAAAAAAAAAQIEBQMG/8QAOhEBAAECAgQLBwMDBQAAAAAAAAECAwQREiExUgUTFDJBUWFxgaGxM2KRwdHh8BU0oiJCUyMkY3Lx/9oADAMBAAIRAxEAPwD3EAAAAAAADR5azpw2Dbg5OrVW2nSs3F/GeyPNt5D3t4euvX0PC5iKKNXS5TG5+4id1SpUqK5b1J9epeY26cHRG2c2pVjK52Rk02IzlxtTxsXVX0dqf8qR6xYtx/a8Zv3J/uYFXKFeXjYitL51Wcu1npFFMdEMNOrrljTm3tbfO2ypmqptbG1zOwH0hj60fFr1o/Nqzj2Mx0aZ6IZadXXLLoZyY2n4uMr/AL890/nuYTZtz/bDOL1yNlUtxk/uhYum0qsaeJjv3W5VH0x1eieVWEonZqetOLrjbrdzkDObDY9WpycKqV3RqWVRLhW9Jcq6bGlcs1W9uxu271NzZtbo8nqAAAAAAAAAAAAAAAAAHM58ZclhKUaVKWjVrX8JbadNbZLgbukungNrDWorqznZDVxV2aKco2y8ybOm5jNwWRsTiI6dLD1KkfKStF8zdk+g86rtFOqZelNquqM4hh4vDVKMnCrTnSmtejOLi7cK4VymVNUVRnEsaqZpnKYfBsyYqtkVVsCrYFWFVYE06soSjOEnCcWpRlF2lGS3094kxnqkictcPXcyM5f0hScalliKNlUtqVSL2VEujWt586OZfs8XOrY6li9xka9sOlNd7gAAAAAAAAAAAAAAADy/ugVtLHTj8HTpw8zn/wBzqYSMrbl4uc7jXZs4COKxdCjPXBtymuGEYuWj02S6T0vV6FEzDzs0adcRL2CEVFKKSSSSSSsklsSOO7DS545MhicHWulp0oSrU5f7oyirtczSs/6Hth65prjteOIoiuiex4+2dZyVWwKtgVYVVgVbIKtgbnM3KDw2Pws09U5qhNcMKjUdfIpOL/dPK/TpW5+L1s1aNyJ8Pi9uOS6wAAAAAAAAAAAAAAAA8nz4f/0MT/xfcwOthvZR+dLk4n2s/nQ12RMovCYijXS0lCXhRW2UGnGSXLZvpsZ3KNOmaWFuvQqip7Bk/H0sTBVKNSNSL8l64vga2p8jORVRVTOUw69NdNUZxLns+M4aVChVw0JqderF03GLvuUJK0pS4HZuy26zYw9maqoqnZDXxN6KaZpjbLyxs6TmqtgVbCqsCGwKtkFWwr75Mf6xhvp6P3kTGvmz3LRzo736BOM7IAAAAAAAAAAAAAAAA8mz5/1DE/8AF9zA62G9lH50uTifaz+dDQNnu8FbkVQCrYFWwqGBVsCrZBVsKq2B98mP9Yw309H7yJjXzZ7lo50d79BnGdkAAAAAAAAAAAAAAAAcjl3Mp4zEVcR30qe6aHgbjp6OjCMdumr+LwG3axWhTFOTUu4XTqmrS8mv9zh8eX2b8w9OW+75/Z58i97y+6Pc3fHl9m/MJy33fP7HIve8vuj3NXx9fZvzBy33fP7HIve8vuj3NHx9fZvzBy33fP7LyL3vL7o9zN8fX2b8wct93z+xyOd7y+7g8bQ3KrWpX0tyqVKela2loycb23thuUznES06oymYY7ZUVbAq2FVbAyMlv9Yw309H7yJjXzZ7mVHOjvfoQ4zsAAAAAAAAAABWpUUE5Skoxim3KTSjFcLe8WIz2JM5bXI5Wz7pU244em67WrdJNwpX5N+Xm5zbt4OqddU5NS5jKY1Uxm53EZ646eypTpclOlFr0rmxGFtx0NacVcnpY7zwyhxp/VUPwGXJrW76pym7veiHnhlDjT+pofgHJrW76nKbu96KvPHKHG39TQ/AOTWt31OU3d70Q88socbf1OH/AAE5Na3fU5Rd3vRV555R42/qcP8AgHJrW76nKLu96KvPTKPG39Th/wAA5Na3fVeUXd70Q89Mo8bf1OH/AADk1rd9TlF3e9EPPXKPHH9Th/wDk9rd9TlF3e9Ghr1pVJTnJ3lOUpydkryk7t2Wraz2iMoyh5TOc5y+TYRVsKo2BVsDIyX+0Yb6ej95Exr5s9zKnnR3vf8AGVHGN07O6PmcfdrtWtKicpzdy1TFVWUsLvqfleaPsONy/Eb/AJR9GzxVHUd9T8rzR9g5fiN/yj6HFUdS0cbNbbS51Y9KOE71POyn87GM2KZ2MyhiFPZqe+mdjDYyi/GrVPU8K7c0vsbTzAAACJNJNt2S1tvUkgPLs7M45Y2bpwbjhoPwVs3Vr/fL1L1nVsWItxnO1yr9+bk5Rsc6zYa6GwKtgUbAq2RVWwKtgVYVDAq2QVbAq2FVbAq2BVsDJyV+0Yb6ej95Exr5s9zKnnR3vfcf4nSj5XhP2HjDvWOc1x8820XAgipjNxaadmi0XKqKoqpnXBNMTGUtvQq6cVLr5GfV4e/F63FcfkufXTozk+h7sQABy/dAyk6OGVGLtPENwfDuS1z67xXNJm1hKNKvOehq4u5o0ZR0vNGdNzFWwKtgVbAq2RVWwKtgVYVVgVbIKtgVbCqtgVbAq2QQBlZK/aMN9PR+8iSvmz3MqedHe99yh4nSj5XhT2HjDvWOc1tz51touRUNkVFyDMyXU1yjwq65/wC+w6/BF7Kuq3PTr/Pzoa+Ip1RLZHfagAA8z7oeK08Yqd9VGlGNuCcryfmceo6eEpyt59bmYurO5l1OWbNpqqtgVbAq2RVWwKtgVbCqsCGyCjYFWwqrYFWwKtgQQANtmng3iMfgqa+GhUfzIPTl5ovrPO7Vo0TL0tU6VcQ9uylLwYrhd+pf1Pk+Fq8rdNPXPp/67uHjXMtc2cFtouYqi5FRcg+mFnozg+VLoer1mxg7mhfoq7fXUxuU50TDeH2DmgADxvOOvumMxc/lpxXNF6C80UdmzGVuI7HGvTncme1rGz0earYFWyKq2BVsCrYVVgQ2BVsgq2FVbAq2BVsCpAAAeqdzHNyWHhLG1ouNStHRpQkvChQum5PgcrLoS4bGhirsVTow38NayjSl02MracnbYtS9p8Xj8Rx13ONkaodm1Ro0se5pPVDZM1VuYqi5MxFyZq6GnK6T4UmfcW69OiKuuM3KmMpyWM0APDcTU0p1JeVOUuttnciMoycOqc5mXxbKirZFVbAo2BVsKhgVbAzMJkfFV0nSwtepF7JRpy0H+9a3nPOq5TTtlnTbqq2RLJeamUOJVfR9pjx9veZcRc3UPNTKHEqvo+0cfb3l4i5uqvNPKHEqvo+0cfb3jiLm6q80socRq+j7Rx9veOIubqP8I5R4jW9D2k4+3vHE3N0/wjlHiNb0PaOPt7xxNzdffC5j5RqtLvXc15VWpTjFc6TcupEnEW46VjD3J6Hb5s9z2lhpRrYmSxNWNpRglbD05cNnrm+V2XJvmrdxU1RlTqhtWsLFOurXLp8bi73jF879SPmcfwhExNu1PfPyj6upas9NTAucRtIuQQRUXJmqCKi5jmN7gnenT+al1aj7LAznhqO6HMvRlXL7m28wDwiorNrgbXUzuQ4cqNgVbAq2BVsKqwMzI+Sq2OqqjRjd7ZSeqFOPlSe8jC5ciiM5Z0W5rnKHqWQsz8LgUpyiq9Za3WrJWi/iR2R7eU5d/FTMZzOUOlaw1NPRnLdzxsVsu+bUjkV8KWadVOc/na3IsVSp3+vJfWjz/VqdyWXET1nf68l9aH6tTuScRPWd/ryX1ofq1O5JxE9Z3+vJfWh+rU7knET1nf68l9aJ+rUbknJ560fpBeS+tD9Xo3JOTz1qyyjwQ62edXDG7R8ZZRh+uWNWxMp7XZcC1I51/G3r2qqdXVGx7UWqadj4XNR6IuRVbkEGKhFVuQRcit7k73qHM+1n2HBv7Wju+bmX/aSyTeeQB4jlmlueJxUPJr1UubTdvMdq3OdET2OLcjKuY7WC2ZMVWwKtgVYVNKnKpKMIRcpzkoRitspt2SXSyTOUZyRGeqHtObuR6eTcMqas5u0q1RbalTk5FsSOLisTERNyrZDsWLOjEUxtWrVnN3ezeW8j5TEYmu/VnVs6I6nRooimNT5muzAAACLkEXIqGyKi5BVsxzVBFRcmaoIIuTNUNmKobIqrZB0WDjanTXxV2H22Cp0cPRHZHo5V2c65732Np5gHkmfuG3LH1nvVYwqrmcdF+lCR1cNVnbhysTTlclzjZ7vBVsCrYVDA6nubYFVsdujV1h6cqi4N0dox80pPoNbFVZUZdbZwtOdefU9MyhPWo8Gt858jwrdmaotx3u3Yp1ZsM5DYAAACCKi5BW5iqLkVFyCCKgioMVRcmYrciouRUXIqacdKUY+U0utmVuiblcUR0zl8UqnRiZdMlY+9iMoyhxklADge6lgtWGxKWxyoTfP4UOyfWb2Dq20+LRxlOyrwefNm80VWwqrAq2Qd73JF/mY5/FodtT2GnjNlPj8m5g9tXh83a4z3yXR2I+L4Qn/cVeHpDt2uZD4Gk9QCLkEXIqLkVFyCGyZqrcxVFyZiCKgiouRUXIIbMVVbIqCKzsj0tKppb0Ffpepes63A1jTv6c7KY851R82tiq8qMutvD6xzQABg5cybHGYeth5atOPgy8iotcZdDSM7dehVFTC5Rp0zS8RxVCdGc6VSLhOnJwlF70l/e07ETExnDkTExOUvgyohsCrZB33cj8fH/Nw/bVNPGbKfH5N3B7avD5u0xnvkujsR8Xwh+4q8PSHbtcyHxNJ6IuRUXIKtkVDZiqLkEEVFyZqgiouYiLkVVsiouQRcioIqCDocnYfc6aT8aXhS5HwH2fBuFnD2IirnTrn6eDlX7mnXq2Mo6DxAAADmM8M0449brTcaeJiraT8StHejO2x8D7d7YsX5t6p2Ne/Yi5rja8synk6vhJaFejOi72TkvAl82WyXQzo010166Zc6qiqjnQw2zJiq2B3/AHIvHx/zcP21TSxmynx+Tdwe2rw+btcb75Lo7EfF8IfuKvD0h27PMhjmi9UNkVFyCLkVFyKrcmYi5jmqLkVFyZiLkzVDZjmqGyZqi5MxBFEr6krvgWtsRE1TlGuSdTa5Oyc01OorW1xjy8LPouDeCqoqi7ejZsj5z9GlfxETGjT8W1PoWiAAAAABWcFJNNKSe1NXTAwZZEwjd3gsM3wuhSb7DPjK+uWHF0dUI/QOD4jhfs9L2Dja96Ti6N2GRhMn0KGk6NClR0raW5U4U9K17Xste19ZJqqq2ysU007IYeO98l0diPluEf3NXh6Q6FnmQx2zReqLkFbmOaoIqGyK21J0dGN9yvZXvo3vY+mtVYLi6dLQzyjqaNUXc5yz81tKh8l6B6aWA/4/4scr3b5mlQ+R9AmlgOu3/EyvdvmaVD5H0BpcH9dv+K5Xu3zRpYfho+gNPg/rt/xMr3b5ieH+R9ARVwfM5Rxf8TK92+b7d7U/g4fwxNnklj/HT8IefGV70ne1P4OH8MRyTD/46fhBxte9J3tT+Dh/DEckw/8Ajp+EHG170rwpqOyKjzJI9aLdFHNiI7mM1TO2VjNAAAAAAAAAAAAanHe+S6OxHy/CP7mrw9Ib1nmQxrmg9kXIIuRUEVBiqLkzFWyKi5FRciouYi1HxofOj2npZ9rT3x6pVzZdOffOMAAAAAAAAAAAAAAAANPj/fJdH8qPleEv3NXh6Q37HMhjXNB7IuTMQRUEVFyKi5BDZirIwWEdZvXaK2v1I3sDgasVVOvKmNs/KHldvRbjtZ8skwtqlJPhdmdirgOzNOVNU5+H0asYurPXENTiKLpycZbV1NcJ87icPXYuTbr2+va3qK4rpzhWj40PnR7TCx7Wnvj1Wvmy6g+/cYAAAAAAAAAAAAAAAAajKUbVHypP1eo+X4Vp0cRM9cRPy+Tfw850MS5zc3ugiouY5iLkVVsiouQRcit3kdrctW3Sd+f/AMsfWcDTTOG1bc5z/O7JzsVnxjOOq1mny41pQ4dF35r6vWfM8PTHGUR05T66vm38HnoywcLHSqU18aPVfWcnC0TXfopjrj1bNycqJnsdMfeOOAAAAAAAAAAAAAAAAMXH4fdI3XjR2cq4DncI4Sb9vOnnRs7ex7WbmhOvY0zPlZ1OircxEXIqGyKhsxVFyCCK++ExcqTutae2L2M3MHjbmFqzp1xO2PzZLyu2ouRrZ8ssK2qm78r1HXq4ep0f6aJz7Z1NaMHOeuWrrVXOTlJ3b/uxwL16u9XNdc65blNMUxlDZ5IwjX+bJb1ork8o73A2CmP9euP+v1+jTxV3P+iPFtT6FpAAAAAAAAAAAAAAAAABi4vBRqa14MuFbHznOxnB1vEf1Rqq6+vve9q/NGroaqvhJw2xuuGOtHzuIwN+zzqdXXGuPt4t2i7RVsljXNLN6ouRUEVBAAAfWjh51PFi3y73We9jC3r/ALOmZ7ej47GFdymjnS2mEyWo2lNqT8leKufhPoMHwNTbnTvTnPV0ff0aV3FTOqnU2R3GoAAAAAAAAAAAAAAAAAAAAA+NXC05+NBPl2PrRrXcHYu8+iO/p+Ma3pTdrp2Sxp5JpvY5R6U15zQr4Ew9XNmY/O17Ri6425Pi8jcFTrjf1mtVwDHRc8vuz5Z7osjfK+j/AFEcA9dzy+5yz3X0hkiC2yk+pI96OA7Ec6qqfh9GM4uvoiGTSwNKOyC55eF2m7a4Ow1vm0R46/V41X7lW2WQbryAAAAAAAAAAAAAAAAAAAAAAAAAAAAAAAAAAAAAAAAAAAAAAAAAAAABcCNICNMCNMBugDdAG6ATpgNICbgSAAAAAAAAAAAAAAAAAAKNgVbAo2BVsCNICNIBpANICykBKYF0wLJgXTAkAAAAAAAAAAAAAAABDiBRwAq4AVcAI0AI0AGgA0AJUALKAFlAC6iBYAAAAAAAAAAAAAAAAAAAACwEWAWAWAWAWAkAAAAAAAAAAAAAH//Z;" vertex="1" parent="SggKGLeIlBfDRfWy77FJ-8">
          <mxGeometry y="15.571509981455215" width="74.24216900020662" height="81.5282170271602" as="geometry" />
        </mxCell>
        <mxCell id="SggKGLeIlBfDRfWy77FJ-9" style="edgeStyle=orthogonalEdgeStyle;rounded=0;orthogonalLoop=1;jettySize=auto;html=1;exitX=1;exitY=0.5;exitDx=0;exitDy=0;entryX=0;entryY=0.5;entryDx=0;entryDy=0;" edge="1" parent="SggKGLeIlBfDRfWy77FJ-22" target="SggKGLeIlBfDRfWy77FJ-7">
          <mxGeometry relative="1" as="geometry">
            <mxPoint x="328.9800000000001" y="171.06741573033713" as="sourcePoint" />
            <mxPoint x="435.98000000000013" y="172.45550561797754" as="targetPoint" />
          </mxGeometry>
        </mxCell>
        <mxCell id="SggKGLeIlBfDRfWy77FJ-10" value="&lt;b&gt;&lt;font style=&quot;font-size: 30px;&quot;&gt;Data Pipeline&lt;/font&gt;&lt;/b&gt;" style="shape=cylinder3;whiteSpace=wrap;html=1;boundedLbl=1;backgroundOutline=1;size=15;direction=south;fillColor=#f8cecc;strokeColor=#b85450;" vertex="1" parent="SggKGLeIlBfDRfWy77FJ-22">
          <mxGeometry x="196.0600000000001" y="63.53932584269663" width="685.0000000000001" height="29.325842696629213" as="geometry" />
        </mxCell>
        <mxCell id="SggKGLeIlBfDRfWy77FJ-12" value="Transformations" style="rounded=1;whiteSpace=wrap;html=1;fontSize=11;fontStyle=1;fillColor=#fff2cc;strokeColor=#d6b656;" vertex="1" parent="SggKGLeIlBfDRfWy77FJ-22">
          <mxGeometry x="473.0200000000001" y="252.69101123595505" width="90.00000000000001" height="24.43820224719101" as="geometry" />
        </mxCell>
        <mxCell id="SggKGLeIlBfDRfWy77FJ-13" value="" style="endArrow=none;html=1;rounded=0;exitX=0.152;exitY=0.985;exitDx=0;exitDy=0;exitPerimeter=0;" edge="1" parent="SggKGLeIlBfDRfWy77FJ-22">
          <mxGeometry width="50" height="50" relative="1" as="geometry">
            <mxPoint x="430.02000000000004" y="236.07303370786516" as="sourcePoint" />
            <mxPoint x="428.9800000000001" y="424.24719101123594" as="targetPoint" />
          </mxGeometry>
        </mxCell>
        <mxCell id="SggKGLeIlBfDRfWy77FJ-14" value="" style="endArrow=classic;html=1;rounded=0;entryX=0;entryY=0.5;entryDx=0;entryDy=0;" edge="1" target="SggKGLeIlBfDRfWy77FJ-12" parent="SggKGLeIlBfDRfWy77FJ-22">
          <mxGeometry width="50" height="50" relative="1" as="geometry">
            <mxPoint x="433.02000000000004" y="265.3988764044944" as="sourcePoint" />
            <mxPoint x="483.0200000000001" y="164.7134831460674" as="targetPoint" />
          </mxGeometry>
        </mxCell>
        <mxCell id="SggKGLeIlBfDRfWy77FJ-15" value="" style="endArrow=classic;html=1;rounded=0;entryX=0;entryY=0.5;entryDx=0;entryDy=0;" edge="1" target="SggKGLeIlBfDRfWy77FJ-16" parent="SggKGLeIlBfDRfWy77FJ-22">
          <mxGeometry width="50" height="50" relative="1" as="geometry">
            <mxPoint x="428.98000000000013" y="361.6853932584269" as="sourcePoint" />
            <mxPoint x="483.0200000000001" y="214.19595505617977" as="targetPoint" />
          </mxGeometry>
        </mxCell>
        <mxCell id="SggKGLeIlBfDRfWy77FJ-16" value="&lt;div style=&quot;&quot;&gt;&lt;span style=&quot;background-color: initial;&quot;&gt;- Importing Required Lib&lt;/span&gt;&lt;/div&gt;&lt;div&gt;- ParDo&lt;/div&gt;&lt;div&gt;- Creating DoFn&lt;/div&gt;&lt;div&gt;- CoGropByKey&lt;/div&gt;&lt;div&gt;- PipelineOptions, ..etc&lt;/div&gt;" style="rounded=1;whiteSpace=wrap;html=1;fontSize=11;fontStyle=1;fillColor=#fff2cc;strokeColor=#d6b656;align=left;" vertex="1" parent="SggKGLeIlBfDRfWy77FJ-22">
          <mxGeometry x="473.0200000000001" y="315.37011235955055" width="135.96000000000004" height="97.75280898876404" as="geometry" />
        </mxCell>
      </root>
    </mxGraphModel>
  </diagram>
</mxfile>
